# This file uses centimeters as units for non-parametric coordinates.

mtllib cuadrogrande.mtl
g default
v -0.684113 1.828795 2.956898
v 0.779062 1.828795 2.956898
v -0.684113 2.702986 2.956898
v 0.779062 2.702986 2.956898
v -0.684113 2.702986 2.927130
v 0.779062 2.702986 2.927130
v -0.684113 1.828795 2.927130
v 0.779062 1.828795 2.927130
v -0.644780 2.679485 2.950418
v 0.739728 2.679485 2.950418
v 0.739728 1.852294 2.950418
v -0.644780 1.852294 2.950418
v -0.651766 2.686471 2.927130
v -0.646826 2.681531 2.929176
v -0.644780 2.679485 2.934116
v 0.746714 2.686471 2.927130
v 0.741774 2.681531 2.929176
v 0.739728 2.679485 2.934116
v 0.746714 1.845309 2.927130
v 0.741774 1.850248 2.929176
v 0.739728 1.852294 2.934116
v -0.651766 1.845309 2.927130
v -0.646826 1.850248 2.929176
v -0.644780 1.852294 2.934116
v -0.601386 1.878221 2.980472
v 0.696335 1.878221 2.980472
v 0.696335 2.653559 2.980472
v -0.601386 2.653559 2.980472
v -0.601386 1.878221 3.007684
v 0.696335 1.878221 3.007684
v 0.696335 2.653559 3.007684
v -0.601386 2.653559 3.007684
vt 0.375000 0.000000
vt 0.625000 0.000000
vt 0.625000 0.250000
vt 0.375000 0.250000
vt 0.375000 0.250000
vt 0.625000 0.250000
vt 0.625000 0.500000
vt 0.375000 0.500000
vt 0.375000 0.500000
vt 0.625000 0.500000
vt 0.625000 0.750000
vt 0.375000 0.750000
vt 0.375000 0.750000
vt 0.625000 0.750000
vt 0.625000 1.000000
vt 0.375000 1.000000
vt 0.625000 0.000000
vt 0.875000 0.000000
vt 0.875000 0.250000
vt 0.125000 0.000000
vt 0.375000 0.000000
vt 0.125000 0.250000
vt 0.624150 0.500000
vt 0.375804 0.500000
vt 0.624196 0.750000
vt 0.375850 0.750000
vt 0.375000 0.500000
vt 0.625000 0.500000
vt 0.625000 0.750000
vt 0.375000 0.750000
vt 0.375000 0.500000
vt 0.375000 0.750000
vt 0.625000 0.500000
vt 0.625000 0.750000
vt 0.625000 0.000000
vt 0.375000 0.000000
vt 0.625000 0.250000
vt 0.375000 0.250000
vn 0.000000 0.000000 1.000000
vn 0.000000 0.000000 1.000000
vn 0.000000 0.000000 1.000000
vn 0.000000 0.000000 1.000000
vn 0.000000 1.000000 0.000000
vn 0.000000 1.000000 0.000000
vn 0.000000 1.000000 0.000000
vn 0.000000 1.000000 0.000000
vn 0.000000 0.000000 -1.000000
vn 0.000000 0.000000 -1.000000
vn 0.000000 0.000000 -1.000000
vn 0.000000 0.000000 -1.000000
vn 0.000000 -1.000000 0.000000
vn 0.000000 -1.000000 0.000000
vn 0.000000 -1.000000 0.000000
vn 0.000000 -1.000000 0.000000
vn 1.000000 0.000000 0.000000
vn 1.000000 0.000000 0.000000
vn 1.000000 0.000000 0.000000
vn 1.000000 0.000000 0.000000
vn -1.000000 0.000000 0.000000
vn -1.000000 0.000000 0.000000
vn -1.000000 0.000000 0.000000
vn -1.000000 0.000000 0.000000
vn 0.000000 0.000000 -1.000000
vn -0.000003 0.000000 -1.000000
vn -0.010951 -0.018247 -0.999774
vn 0.010949 -0.018247 -0.999774
vn -0.000003 0.000000 -1.000000
vn -0.010951 0.018247 -0.999774
vn 0.000000 0.000000 -1.000000
vn 0.010949 0.018248 -0.999774
vn 0.000000 -0.993703 -0.112045
vn 0.000000 -0.993703 -0.112047
vn 0.000000 -1.000000 0.000000
vn 0.000000 -1.000000 0.000000
vn -0.993692 0.000000 -0.112142
vn -0.993692 0.000000 -0.112141
vn -1.000000 0.000000 0.000000
vn -1.000000 0.000000 0.000000
vn 0.000000 0.993703 -0.112047
vn 0.000000 0.993703 -0.112045
vn 0.000000 1.000000 0.000000
vn 0.000000 1.000000 0.000000
vn 0.993694 0.000000 -0.112125
vn 0.993694 0.000000 -0.112126
vn 1.000000 0.000000 0.000000
vn 1.000000 0.000000 0.000000
vn 0.382576 0.000000 -0.923924
vn 0.382576 0.000000 -0.923924
vn 0.923885 0.000000 -0.382670
vn 0.923885 0.000000 -0.382670
vn 0.000000 -0.923886 -0.382669
vn 0.000000 -0.923886 -0.382669
vn 0.000000 -0.382601 -0.923914
vn 0.000000 -0.382601 -0.923914
vn -0.923866 0.000000 -0.382717
vn -0.923865 0.000000 -0.382717
vn -0.382572 0.000000 -0.923926
vn -0.382572 0.000000 -0.923926
vn 0.000000 0.923886 -0.382669
vn 0.000000 0.923886 -0.382669
vn 0.000000 0.382635 -0.923900
vn 0.000000 0.382635 -0.923900
vn -0.177518 -0.165576 0.970089
vn 0.177518 -0.165575 0.970089
vn 0.123106 -0.251797 0.959918
vn -0.123106 -0.251797 0.959918
vn 0.177518 0.165576 0.970089
vn 0.123106 0.251796 0.959919
vn -0.177518 0.165576 0.970089
vn -0.123106 0.251796 0.959919
vn 0.000000 -1.000000 0.000000
vn 0.000000 -1.000000 0.000000
vn 0.000000 -1.000000 0.000000
vn 0.000000 -1.000000 0.000000
vn 1.000000 0.000000 0.000000
vn 1.000000 0.000000 0.000000
vn 1.000000 0.000000 0.000000
vn 1.000000 0.000000 0.000000
vn 0.000000 1.000000 0.000000
vn 0.000000 1.000000 0.000000
vn 0.000000 1.000000 0.000000
vn 0.000000 1.000000 0.000000
vn -1.000000 0.000000 0.000000
vn -1.000000 0.000000 0.000000
vn -1.000000 0.000000 0.000000
vn -1.000000 0.000000 0.000000
s off
g polySurface85 polySurface24
usemtl lambert14SG
f 29/1/1 30/2/2 31/3/3 32/4/4
f 3/5/5 4/6/6 6/7/7 5/8/8
f 9/9/9 10/10/10 11/11/11 12/12/12
f 7/13/13 8/14/14 2/15/15 1/16/16
f 2/17/17 8/18/18 6/19/19 4/6/20
f 7/20/21 1/21/22 3/5/23 5/22/24
s 1
f 5/8/25 6/7/26 16/23/27 13/24/28
f 6/7/26 8/14/29 19/25/30 16/23/27
f 8/14/29 7/13/31 22/26/32 19/25/30
f 7/13/31 5/8/25 13/24/28 22/26/32
s 2
f 15/27/33 18/28/34 10/10/35 9/9/36
s 3
f 18/28/37 21/29/38 11/11/39 10/10/40
s 4
f 21/29/41 24/30/42 12/12/43 11/11/44
s 5
f 24/30/45 15/27/46 9/9/47 12/12/48
s 1
f 13/24/28 14/31/49 23/32/50 22/26/32
s 5
f 14/31/51 15/27/46 24/30/45 23/32/52
s 2
f 15/27/33 14/31/53 17/33/54 18/28/34
s 1
f 14/31/55 13/24/28 16/23/27 17/33/56
s 3
f 18/28/37 17/33/57 20/34/58 21/29/38
s 1
f 17/33/59 16/23/27 19/25/30 20/34/60
s 4
f 21/29/41 20/34/61 23/32/62 24/30/42
s 1
f 20/34/63 19/25/30 22/26/32 23/32/64
s 6
f 1/21/65 2/17/66 26/35/67 25/36/68
f 2/17/66 4/6/69 27/37/70 26/35/67
f 4/6/69 3/5/71 28/38/72 27/37/70
f 3/5/71 1/21/65 25/36/68 28/38/72
s off
f 25/36/73 26/35/74 30/2/75 29/1/76
f 26/35/77 27/37/78 31/3/79 30/2/80
f 27/37/81 28/38/82 32/4/83 31/3/84
f 28/38/85 25/36/86 29/1/87 32/4/88
