# This file uses centimeters as units for non-parametric coordinates.

mtllib cuadro.mtl
g default
v -2.904980 2.516160 0.727570
v -2.905982 2.482911 0.727570
v -2.905982 1.689285 0.727570
v -2.904980 1.656036 0.727570
v -2.893741 2.516160 0.727570
v -2.892751 2.482911 0.727570
v -2.892751 1.689285 0.727570
v -2.893741 1.656036 0.727570
v -2.892739 2.516160 0.692439
v -2.903295 2.482911 0.692439
v -2.903295 1.689285 0.692439
v -2.892672 1.656036 0.692439
v -2.892739 2.516160 -0.097423
v -2.903295 2.482911 -0.097423
v -2.903295 1.689285 -0.097423
v -2.892672 1.656036 -0.097423
v -2.893731 2.516160 -0.132554
v -2.892672 2.482911 -0.132554
v -2.892672 1.689285 -0.132554
v -2.893674 1.656036 -0.132554
v -2.904980 2.516160 -0.132554
v -2.905982 2.482911 -0.132554
v -2.905982 1.689285 -0.132554
v -2.904980 1.656036 -0.132554
v -2.905982 2.516160 -0.097423
v -2.905982 2.482911 -0.097423
v -2.905982 1.689285 -0.097423
v -2.905982 1.656036 -0.097423
v -2.905982 2.516160 0.692439
v -2.905982 2.482911 0.692439
v -2.905982 1.689285 0.692439
v -2.905982 1.656036 0.692439
v -2.892639 2.516160 0.727570
v -2.892530 2.482911 0.727570
v -2.881986 2.482911 0.692439
v -2.892541 2.516160 0.692439
v -2.892530 1.689285 0.727570
v -2.881986 1.689285 0.692439
v -2.892640 1.656036 0.727570
v -2.892609 1.656036 0.692439
v -2.881986 2.482911 -0.097423
v -2.892541 2.516160 -0.097423
v -2.892609 1.656036 -0.097423
v -2.881986 1.689285 -0.097423
v -2.892609 2.482911 -0.132554
v -2.892640 2.516160 -0.132554
v -2.892609 1.689285 -0.132554
v -2.892609 1.656036 -0.132554
vt 0.375000 0.000000
vt 0.458333 0.000000
vt 0.458333 0.250000
vt 0.375000 0.250000
vt 0.541667 0.000000
vt 0.541667 0.250000
vt 0.625000 0.000000
vt 0.625000 0.250000
vt 0.375000 0.250000
vt 0.458333 0.250000
vt 0.458333 0.333333
vt 0.375000 0.333333
vt 0.541667 0.250000
vt 0.541667 0.333333
vt 0.625000 0.250000
vt 0.625000 0.333333
vt 0.458333 0.416667
vt 0.375000 0.416667
vt 0.458333 0.333333
vt 0.541667 0.333333
vt 0.541667 0.416667
vt 0.458333 0.416667
vt 0.625000 0.416667
vt 0.541667 0.416667
vt 0.458333 0.500000
vt 0.375000 0.500000
vt 0.541667 0.500000
vt 0.625000 0.500000
vt 0.375000 0.500000
vt 0.458333 0.500000
vt 0.458333 0.750000
vt 0.375000 0.750000
vt 0.541667 0.500000
vt 0.541667 0.750000
vt 0.625000 0.500000
vt 0.625000 0.750000
vt 0.458333 0.833333
vt 0.375000 0.833333
vt 0.541667 0.833333
vt 0.625000 0.833333
vt 0.458333 0.916667
vt 0.375000 0.916667
vt 0.541667 0.916667
vt 0.625000 0.916667
vt 0.458333 1.000000
vt 0.375000 1.000000
vt 0.541667 1.000000
vt 0.625000 1.000000
vt 0.791667 0.000000
vt 0.875000 0.000000
vt 0.875000 0.250000
vt 0.791667 0.250000
vt 0.708333 0.000000
vt 0.708333 0.250000
vt 0.125000 0.000000
vt 0.208333 0.000000
vt 0.208333 0.250000
vt 0.125000 0.250000
vt 0.291667 0.000000
vt 0.291667 0.250000
vt 0.375000 0.333333
vt 0.625000 0.333333
vt 0.375000 0.416667
vt 0.625000 0.416667
vn 0.000000 0.000000 1.000000
vn 0.000000 0.000000 1.000000
vn 0.000000 0.000000 1.000000
vn 0.000000 0.000000 1.000000
vn 0.000000 0.000000 1.000000
vn 0.000000 0.000000 1.000000
vn 0.000000 0.000000 1.000000
vn 0.000000 0.000000 1.000000
vn 0.976522 0.156612 0.147910
vn 0.959336 0.006190 0.282200
vn 0.977007 0.150575 0.150945
vn 0.954928 0.296773 0.006162
vn 0.959345 -0.006230 0.282166
vn 0.976868 -0.151518 0.150905
vn 0.976502 -0.157612 0.146978
vn 0.954388 -0.298508 0.006118
vn 0.976843 0.150526 -0.152049
vn 0.954942 0.296729 -0.006209
vn 1.000000 0.000000 0.000000
vn 1.000000 0.000000 0.000000
vn 1.000000 0.000000 0.000000
vn 1.000000 0.000000 0.000000
vn 0.954406 -0.298447 -0.006145
vn 0.976707 -0.151460 -0.152000
vn 0.958762 0.006138 -0.284144
vn 0.976537 0.155461 -0.149019
vn 0.958776 -0.006159 -0.284095
vn 0.976654 -0.156016 -0.147667
vn 0.000000 0.000000 -1.000000
vn 0.000000 0.000000 -1.000000
vn 0.000000 0.000000 -1.000000
vn 0.000000 0.000000 -1.000000
vn 0.000000 0.000000 -1.000000
vn 0.000000 0.000000 -1.000000
vn 0.000000 0.000000 -1.000000
vn 0.000000 0.000000 -1.000000
vn -0.999785 0.015069 -0.014259
vn -1.000000 0.000606 -0.000573
vn -1.000000 0.000026 -0.000024
vn -1.000000 0.000642 -0.000607
vn -1.000000 -0.000606 -0.000573
vn -1.000000 -0.000026 -0.000024
vn -0.999785 -0.015069 -0.014259
vn -1.000000 -0.000642 -0.000607
vn -1.000000 0.000026 0.000024
vn -1.000000 0.000642 0.000607
vn -1.000000 -0.000026 0.000024
vn -1.000000 -0.000642 0.000607
vn -1.000000 0.000606 0.000573
vn -0.999785 0.015069 0.014259
vn -1.000000 -0.000606 0.000573
vn -0.999785 -0.015069 0.014259
vn 0.000000 -1.000000 0.000000
vn 0.000000 -1.000000 0.000000
vn 0.000000 -1.000000 0.000000
vn 0.000000 -1.000000 0.000000
vn 0.000000 -1.000000 -0.000000
vn 0.000000 -1.000000 -0.000000
vn 0.000000 -1.000000 -0.000004
vn 0.000000 -1.000000 -0.000004
vn 0.000000 1.000000 0.000000
vn 0.000000 1.000000 0.000000
vn 0.000000 1.000000 0.000000
vn 0.000000 1.000000 0.000000
vn 0.000000 1.000000 0.000000
vn 0.000000 1.000000 0.000000
vn 0.000000 1.000000 0.000000
vn 0.000000 1.000000 0.000000
vn 0.000000 0.000000 1.000000
vn 0.000000 0.000000 1.000000
vn 0.000000 1.000000 0.000000
vn 0.000000 1.000000 0.000000
vn 0.000000 0.000000 1.000000
vn 0.000000 0.000000 -1.000000
vn 0.000000 0.000000 -1.000000
vn 0.000000 0.000000 -1.000000
vn 0.000000 0.000000 -1.000000
vn 0.000000 0.000000 1.000000
vn 0.000000 -1.000000 0.000000
vn 0.000000 -1.000000 0.000000
vn 0.000000 -1.000000 0.000000
vn 0.000000 -1.000000 0.000000
vn 0.000000 -1.000000 0.000000
vn 0.000000 -1.000000 0.000000
vn 0.000000 1.000000 0.000000
vn 0.000000 -1.000000 0.000001
vn 0.000000 1.000000 0.000000
vn 0.000000 1.000000 0.000000
vn 0.000000 1.000000 0.000000
vn 0.000000 1.000000 0.000000
vn 0.000000 0.000000 -1.000000
vn 0.000000 0.000000 -1.000000
vn 0.000000 1.000000 0.000000
vn 0.000000 0.000000 1.000000
vn 0.000000 0.000000 1.000000
vn 0.000000 0.000000 1.000000
vn 0.000000 0.000000 1.000000
vn 0.000000 0.000000 -1.000000
vn 0.000000 -1.000000 0.000002
vn 0.000000 0.000000 -1.000000
s 1
g polySurface77 polySurface24
usemtl lambert13SG
f 1/1/1 2/2/2 6/3/3 5/4/4
f 2/2/2 3/5/5 7/6/6 6/3/3
f 3/5/5 4/7/7 8/8/8 7/6/6
s 2
f 33/9/9 34/10/10 35/11/11 36/12/12
f 34/10/10 37/13/13 38/14/14 35/11/11
f 37/13/13 39/15/15 40/16/16 38/14/14
f 36/12/12 35/11/11 41/17/17 42/18/18
s off
f 10/19/19 11/20/20 15/21/21 14/22/22
s 2
f 38/14/14 40/16/16 43/23/23 44/24/24
f 42/18/18 41/17/17 45/25/25 46/26/26
f 41/17/17 44/24/24 47/27/27 45/25/25
f 44/24/24 43/23/23 48/28/28 47/27/27
s 3
f 17/29/29 18/30/30 22/31/31 21/32/32
f 18/30/30 19/33/33 23/34/34 22/31/31
f 19/33/33 20/35/35 24/36/36 23/34/34
s 4
f 21/32/37 22/31/38 26/37/39 25/38/40
f 22/31/38 23/34/41 27/39/42 26/37/39
f 23/34/41 24/36/43 28/40/44 27/39/42
f 25/38/40 26/37/39 30/41/45 29/42/46
f 26/37/39 27/39/42 31/43/47 30/41/45
f 27/39/42 28/40/44 32/44/48 31/43/47
f 29/42/46 30/41/45 2/45/49 1/46/50
f 30/41/45 31/43/47 3/47/51 2/45/49
f 31/43/47 32/44/48 4/48/52 3/47/51
s 5
f 28/49/53 24/50/54 20/51/55 16/52/56
f 32/53/57 28/49/53 16/52/56 12/54/58
f 4/7/59 32/53/57 12/54/58 8/8/60
s 6
f 21/55/61 25/56/62 13/57/63 17/58/64
f 25/56/62 29/59/65 9/60/66 13/57/63
f 29/59/65 1/1/67 5/4/68 9/60/66
s 1
f 5/4/4 6/3/3 34/10/69 33/9/70
s 6
f 9/61/66 5/4/68 33/9/71 36/12/72
s 1
f 6/3/3 7/6/6 37/13/73 34/10/69
s off
f 11/20/74 10/19/75 35/11/76 38/14/77
s 1
f 7/6/6 8/8/8 39/15/78 37/13/73
s 5
f 8/8/60 12/62/58 40/16/79 39/15/80
s off
f 10/19/81 14/22/82 41/17/83 35/11/84
s 6
f 13/63/63 9/61/66 36/12/72 42/18/85
s 5
f 12/62/58 16/64/56 43/23/86 40/16/79
s off
f 15/21/87 11/20/88 38/14/89 44/24/90
s 3
f 18/30/30 17/29/29 46/26/91 45/25/92
s 6
f 17/29/64 13/63/63 42/18/85 46/26/93
s off
f 14/22/94 15/21/95 44/24/96 41/17/97
s 3
f 19/33/33 18/30/30 45/25/92 47/27/98
s 5
f 16/64/56 20/35/55 48/28/99 43/23/86
s 3
f 20/35/35 19/33/33 47/27/98 48/28/100
