# This file uses centimeters as units for non-parametric coordinates.

mtllib silla.mtl
g default
v -2.470287 0.855823 -1.205487
v -2.445059 0.855823 -1.193591
v -2.182530 0.855823 -1.069799
v -2.157302 0.855823 -1.057904
v -2.470287 0.899077 -1.205487
v -2.445059 0.899077 -1.193591
v -2.182530 0.899077 -1.069799
v -2.157302 0.899077 -1.057904
v -2.446493 0.856547 -1.249495
v -2.442060 0.856547 -1.251356
v -2.171484 0.899077 -1.093225
v -2.146256 0.899077 -1.081329
v -2.337351 0.856546 -1.480999
v -2.335965 0.856545 -1.476400
v -2.045993 0.899077 -1.359358
v -2.020765 0.899077 -1.347463
v -2.322704 0.899077 -1.518471
v -2.297476 0.899077 -1.506575
v -2.034947 0.899077 -1.382784
v -2.009719 0.899077 -1.370888
v -2.322704 0.855823 -1.518471
v -2.297476 0.855823 -1.506575
v -2.034947 0.855823 -1.382784
v -2.009719 0.855823 -1.370888
v -2.333750 0.855823 -1.495046
v -2.308522 0.855823 -1.483150
v -2.045993 0.855823 -1.359358
v -2.020765 0.855823 -1.347463
v -2.459240 0.855823 -1.228912
v -2.434012 0.855823 -1.217017
v -2.171484 0.855823 -1.093225
v -2.146256 0.855823 -1.081329
v -2.432828 1.361977 -1.255889
v -2.401116 1.361975 -1.283190
v -2.338655 1.361974 -1.415676
v -2.337773 1.361975 -1.457513
v -2.322704 0.505260 -1.518471
v -2.297476 0.505260 -1.506575
v -2.308522 0.505260 -1.483150
v -2.333750 0.505260 -1.495046
v -2.034947 0.505260 -1.382784
v -2.009719 0.505260 -1.370888
v -2.020765 0.505260 -1.347463
v -2.045993 0.505260 -1.359358
v -2.459241 0.505260 -1.228912
v -2.434012 0.505260 -1.217017
v -2.445059 0.505260 -1.193591
v -2.470287 0.505260 -1.205487
v -2.171484 0.505260 -1.093225
v -2.146256 0.505260 -1.081329
v -2.157302 0.505260 -1.057904
v -2.182530 0.505260 -1.069799
v -2.445944 0.857659 -1.242830
v -2.331856 0.857658 -1.484818
v -2.337049 1.360659 -1.418587
v -2.402340 1.360660 -1.280100
v -2.034947 0.505260 -1.382784
v -2.009719 0.505260 -1.370888
v -2.020765 0.505260 -1.347463
v -2.045993 0.505260 -1.359358
v -2.322704 0.505260 -1.518471
v -2.297476 0.505260 -1.506575
v -2.308522 0.505260 -1.483150
v -2.333750 0.505260 -1.495046
v -2.171484 0.505260 -1.093225
v -2.146256 0.505260 -1.081329
v -2.157302 0.505260 -1.057904
v -2.182530 0.505260 -1.069799
v -2.459241 0.505260 -1.228912
v -2.434012 0.505260 -1.217017
v -2.445059 0.505260 -1.193591
v -2.470287 0.505260 -1.205487
v -2.439178 1.080894 -1.252871
v -2.435091 1.080894 -1.250944
v -2.417053 1.066439 -1.296191
v -2.419765 1.066440 -1.293519
v -2.358737 1.066438 -1.423602
v -2.355718 1.066438 -1.418232
v -2.336787 1.080893 -1.463057
v -2.340217 1.080893 -1.464674
vt 0.375000 0.000000
vt 0.458333 0.000000
vt 0.458333 0.250000
vt 0.375000 0.250000
vt 0.541667 0.000000
vt 0.541667 0.250000
vt 0.625000 0.000000
vt 0.625000 0.250000
vt 0.375000 0.250000
vt 0.458333 0.250000
vt 0.458333 0.333333
vt 0.375000 0.333333
vt 0.541667 0.333333
vt 0.458333 0.333333
vt 0.625000 0.333333
vt 0.375000 0.333333
vt 0.458333 0.333333
vt 0.458333 0.416667
vt 0.375000 0.416667
vt 0.541667 0.416667
vt 0.458333 0.416667
vt 0.625000 0.416667
vt 0.375000 0.416667
vt 0.458333 0.416667
vt 0.458333 0.500000
vt 0.375000 0.500000
vt 0.541667 0.500000
vt 0.458333 0.500000
vt 0.625000 0.500000
vt 0.375000 0.500000
vt 0.458333 0.750000
vt 0.375000 0.750000
vt 0.541667 0.750000
vt 0.625000 0.750000
vt 0.375000 0.750000
vt 0.458333 0.750000
vt 0.458333 0.833333
vt 0.375000 0.833333
vt 0.541667 0.833333
vt 0.458333 0.833333
vt 0.541667 0.750000
vt 0.625000 0.750000
vt 0.625000 0.833333
vt 0.541667 0.833333
vt 0.375000 0.833333
vt 0.458333 0.916667
vt 0.375000 0.916667
vt 0.541667 0.916667
vt 0.625000 0.833333
vt 0.625000 0.916667
vt 0.375000 0.916667
vt 0.458333 0.916667
vt 0.458333 1.000000
vt 0.375000 1.000000
vt 0.541667 1.000000
vt 0.458333 1.000000
vt 0.541667 0.916667
vt 0.625000 0.916667
vt 0.625000 1.000000
vt 0.541667 1.000000
vt 0.791667 0.000000
vt 0.875000 0.000000
vt 0.875000 0.250000
vt 0.791667 0.250000
vt 0.708333 0.000000
vt 0.708333 0.250000
vt 0.125000 0.000000
vt 0.208333 0.000000
vt 0.208333 0.250000
vt 0.125000 0.250000
vt 0.291667 0.000000
vt 0.291667 0.250000
vt 0.375000 0.333333
vt 0.458333 0.333333
vt 0.458333 0.416667
vt 0.458333 0.416667
vt 0.458333 0.333333
vt 0.375000 0.416667
vt 0.458333 0.750000
vt 0.375000 0.750000
vt 0.458333 0.833333
vt 0.375000 0.833333
vt 0.625000 0.750000
vt 0.541667 0.750000
vt 0.625000 0.833333
vt 0.541667 0.833333
vt 0.458333 0.916667
vt 0.375000 0.916667
vt 0.458333 1.000000
vt 0.375000 1.000000
vt 0.375000 1.000000
vt 0.625000 0.916667
vt 0.541667 0.916667
vt 0.625000 1.000000
vt 0.625000 1.000000
vt 0.541667 1.000000
vn -0.426499 0.000000 0.904488
vn -0.426498 0.000000 0.904488
vn -0.425920 0.052036 0.903263
vn -0.416772 0.212343 0.883862
vn -0.426497 0.000000 0.904489
vn -0.426497 0.000000 0.904489
vn -0.426497 0.000000 0.904489
vn -0.426498 0.000000 0.904489
vn -0.036394 0.942237 -0.332964
vn -0.036394 0.942237 -0.332964
vn -0.036394 0.942237 -0.332964
vn -0.036394 0.942237 -0.332964
vn 0.160022 0.885514 -0.436186
vn 0.152655 0.896412 -0.416103
vn -0.074395 0.991632 -0.105502
vn -0.096447 0.990866 -0.094247
vn 0.000000 1.000000 0.000000
vn 0.000000 1.000000 -0.000001
vn 0.000041 1.000000 0.000014
vn 0.000041 1.000000 0.000014
vn 0.000041 1.000000 0.000014
vn 0.000041 1.000000 0.000014
vn -0.130164 0.991462 0.007746
vn -0.135483 0.990674 -0.014457
vn 0.000000 1.000000 -0.000001
vn -0.234650 0.947635 0.216629
vn -0.234650 0.947635 0.216629
vn -0.234650 0.947635 0.216629
vn -0.234650 0.947635 0.216629
vn -0.246125 0.873299 0.420442
vn -0.258858 0.858753 0.442195
vn 0.000000 1.000000 0.000003
vn 0.416879 0.211156 -0.884096
vn 0.425945 0.050836 -0.903320
vn 0.426496 0.000000 -0.904489
vn 0.426495 0.000000 -0.904490
vn 0.426497 0.000000 -0.904489
vn 0.426496 0.000000 -0.904490
vn 0.426495 0.000000 -0.904490
vn 0.426494 0.000000 -0.904490
vn 0.000000 -1.000000 0.000001
vn 0.000000 -1.000000 0.000001
vn 0.000000 -1.000000 0.000001
vn 0.000000 -1.000000 0.000001
vn 0.000000 -1.000000 -0.000001
vn 0.000000 -1.000000 -0.000001
vn 0.000000 -1.000000 -0.000000
vn 0.000000 -1.000000 -0.000000
vn 0.000000 -1.000000 -0.000001
vn 0.000000 -1.000000 -0.000001
vn 0.000000 -1.000000 -0.000001
vn 0.000000 -1.000000 -0.000001
vn 0.000000 -1.000000 0.000000
vn 0.000000 -1.000000 0.000000
vn 0.000000 -1.000000 0.000000
vn 0.000000 -1.000000 0.000000
vn 0.000000 -1.000000 0.000000
vn 0.000000 -1.000000 0.000000
vn 0.000000 -1.000000 -0.000001
vn 0.000000 -1.000000 -0.000001
vn 0.000000 -1.000000 -0.000001
vn 0.000000 -1.000000 -0.000001
vn 0.000000 -1.000000 0.000000
vn 0.000000 -1.000000 0.000000
vn 0.000000 -1.000000 -0.000001
vn 0.000000 -1.000000 -0.000001
vn 0.000000 -1.000000 -0.000001
vn 0.000000 -1.000000 -0.000001
vn 0.904489 0.000000 0.426497
vn 0.904489 0.000000 0.426497
vn 0.904488 0.000000 0.426500
vn 0.904489 0.000000 0.426497
vn 0.904488 0.000000 0.426499
vn 0.904489 0.000000 0.426497
vn 0.904487 0.000000 0.426501
vn 0.904487 0.000000 0.426501
vn -0.906997 0.003556 -0.421122
vn -0.908735 0.014933 -0.417105
vn -0.905378 0.030196 -0.423530
vn -0.925341 0.016531 -0.378775
vn -0.900020 0.011182 -0.435705
vn -0.902866 0.030578 -0.428833
vn -0.901973 0.003504 -0.431779
vn -0.884255 0.022283 -0.466472
vn 0.627908 -0.004489 0.778275
vn 0.627908 -0.004489 0.778275
vn 0.627908 -0.004489 0.778275
vn 0.627908 -0.004489 0.778275
vn 0.903525 -0.046762 0.425977
vn 0.903525 -0.046762 0.425977
vn 0.903525 -0.046762 0.425977
vn 0.903525 -0.046762 0.425977
vn 0.999933 0.003982 -0.010833
vn 0.999933 0.003982 -0.010833
vn 0.999933 0.003982 -0.010833
vn 0.999933 0.003982 -0.010833
vn -0.904354 0.019056 -0.426357
vn -0.904354 0.019056 -0.426357
vn 0.426495 0.000000 -0.904490
vn 0.426495 0.000000 -0.904490
vn 0.904491 0.000000 0.426493
vn 0.904491 0.000000 0.426493
vn 0.904491 0.000000 0.426493
vn 0.904491 0.000000 0.426493
vn -0.426496 0.000000 0.904489
vn -0.426496 0.000000 0.904489
vn -0.426496 0.000000 0.904489
vn -0.426496 0.000000 0.904489
vn -0.904486 0.000000 -0.426503
vn -0.904486 0.000000 -0.426503
vn 0.426494 0.000000 -0.904491
vn 0.426494 0.000000 -0.904491
vn 0.904489 0.000000 0.426497
vn 0.904489 0.000000 0.426497
vn -0.426492 -0.000000 0.904491
vn -0.426492 -0.000000 0.904491
vn -0.426492 -0.000000 0.904491
vn -0.426492 -0.000000 0.904491
vn -0.904487 0.000000 -0.426501
vn -0.904487 0.000000 -0.426501
vn -0.904487 0.000000 -0.426501
vn -0.904487 0.000000 -0.426501
vn 0.426492 -0.000000 -0.904491
vn 0.426492 -0.000000 -0.904491
vn 0.426492 -0.000000 -0.904491
vn 0.426492 -0.000000 -0.904491
vn 0.904485 0.000000 0.426506
vn 0.904485 0.000000 0.426506
vn 0.904485 0.000000 0.426506
vn 0.904485 0.000000 0.426506
vn -0.426500 0.000000 0.904488
vn -0.426500 0.000000 0.904488
vn -0.904490 0.000000 -0.426496
vn -0.904490 0.000000 -0.426496
vn 0.426499 0.000000 -0.904488
vn 0.426499 0.000000 -0.904488
vn 0.426499 0.000000 -0.904488
vn 0.426499 0.000000 -0.904488
vn 0.904487 0.000000 0.426501
vn 0.904487 0.000000 0.426501
vn -0.426497 0.000000 0.904489
vn -0.426497 0.000000 0.904489
vn -0.904492 0.000000 -0.426491
vn -0.904492 0.000000 -0.426491
vn -0.904492 0.000000 -0.426491
vn -0.904492 0.000000 -0.426491
vn 0.898867 -0.111586 0.423777
vn 0.898867 -0.111586 0.423777
vn 0.898867 -0.111586 0.423777
vn 0.898867 -0.111586 0.423777
vn -0.891333 0.049754 -0.450612
vn -0.891333 0.049754 -0.450612
vn -0.891333 0.049754 -0.450612
vn -0.891333 0.049754 -0.450612
vn 0.893073 0.158637 0.421016
vn 0.893073 0.158637 0.421016
vn 0.893073 0.158637 0.421016
vn 0.893073 0.158637 0.421016
vn -0.914630 0.049185 -0.401289
vn -0.914630 0.049185 -0.401289
vn -0.914630 0.049185 -0.401289
vn -0.914630 0.049185 -0.401289
vn 0.000000 0.000000 0.000000
vn 0.000000 0.000000 0.000000
vn 0.000000 0.000000 0.000000
vn 0.000000 0.000000 0.000000
vn 0.000000 0.000000 0.000000
vn 0.000000 0.000000 0.000000
vn 0.000000 0.000000 0.000000
vn 0.000000 0.000000 0.000000
vn 0.000000 0.000000 0.000000
vn 0.000000 0.000000 0.000000
vn 0.000000 0.000000 0.000000
vn 0.000000 0.000000 0.000000
vn 0.000000 0.000000 0.000000
vn 0.000000 0.000000 0.000000
vn 0.000000 0.000000 0.000000
vn 0.000000 0.000000 0.000000
vn 0.000000 0.000000 0.000000
vn 0.000000 0.000000 0.000000
vn 0.000000 0.000000 0.000000
vn 0.000000 0.000000 0.000000
vn 0.000000 0.000000 0.000000
vn 0.000000 0.000000 0.000000
vn 0.000000 0.000000 0.000000
vn 0.000000 0.000000 0.000000
vn 0.000000 0.000000 0.000000
vn 0.000000 0.000000 0.000000
vn 0.000000 0.000000 0.000000
vn 0.000000 0.000000 0.000000
vn 0.000000 0.000000 0.000000
vn 0.000000 0.000000 0.000000
vn 0.000000 0.000000 0.000000
vn 0.000000 0.000000 0.000000
vn 0.000000 0.000000 0.000000
vn 0.000000 0.000000 0.000000
vn 0.000000 0.000000 0.000000
vn 0.000000 0.000000 0.000000
vn 0.000000 0.000000 0.000000
vn 0.000000 0.000000 0.000000
vn 0.000000 0.000000 0.000000
vn 0.000000 0.000000 0.000000
vn 0.000000 0.000000 0.000000
vn 0.000000 0.000000 0.000000
vn 0.000000 0.000000 0.000000
vn 0.000000 0.000000 0.000000
vn 0.000000 0.000000 0.000000
vn 0.000000 0.000000 0.000000
vn 0.000000 0.000000 0.000000
vn 0.000000 0.000000 0.000000
vn 0.000000 0.000000 0.000000
vn 0.000000 0.000000 0.000000
vn 0.000000 0.000000 0.000000
vn 0.000000 0.000000 0.000000
vn 0.000000 0.000000 0.000000
vn 0.000000 0.000000 0.000000
vn 0.000000 0.000000 0.000000
vn 0.000000 0.000000 0.000000
vn 0.000000 0.000000 0.000000
vn 0.000000 0.000000 0.000000
vn 0.000000 0.000000 0.000000
vn 0.000000 0.000000 0.000000
vn 0.000000 0.000000 0.000000
vn 0.000000 0.000000 0.000000
vn 0.000000 0.000000 0.000000
vn 0.000000 0.000000 0.000000
vn -0.407523 0.294964 0.864246
vn -0.407523 0.294964 0.864246
vn 0.975852 -0.030714 0.216264
vn 0.975852 -0.030714 0.216264
vn 0.975852 -0.030714 0.216264
vn 0.975852 -0.030714 0.216264
vn -0.532311 -0.112024 -0.839104
vn -0.532311 -0.112024 -0.839104
vn -0.532311 -0.112024 -0.839104
vn -0.532311 -0.112024 -0.839104
vn -0.884465 0.021825 -0.466096
vn -0.884465 0.021825 -0.466096
vn -0.896809 -0.196948 0.396163
vn -0.896809 -0.196948 0.396163
vn -0.896809 -0.196948 0.396163
vn -0.896809 -0.196948 0.396163
vn 0.805283 -0.032261 0.592012
vn 0.805283 -0.032261 0.592012
vn 0.805283 -0.032261 0.592012
vn 0.805283 -0.032261 0.592012
vn 0.407517 0.294975 -0.864245
vn 0.407517 0.294975 -0.864245
vn -0.925169 0.015774 -0.379228
vn -0.925169 0.015774 -0.379228
s 1
g polySurface64 polySurface24
usemtl lambert19SG
f 1/1/1 2/2/2 6/3/3 5/4/4
f 2/2/2 3/5/5 7/6/6 6/3/3
f 3/5/5 4/7/7 8/8/8 7/6/6
s off
f 73/9/9 74/10/10 75/11/11 76/12/12
s 2
f 6/3/13 7/6/14 11/13/15 10/14/16
f 7/6/14 8/8/17 12/15/18 11/13/15
s off
f 33/16/19 34/17/20 35/18/21 36/19/22
s 2
f 10/14/16 11/13/15 15/20/23 14/21/24
f 11/13/15 12/15/18 16/22/25 15/20/23
s off
f 77/23/26 78/24/27 79/25/28 80/26/29
s 2
f 14/21/24 15/20/23 19/27/30 18/28/31
f 15/20/23 16/22/25 20/29/32 19/27/30
s 3
f 17/30/33 18/28/34 22/31/35 21/32/36
f 18/28/34 19/27/37 23/33/38 22/31/35
f 19/27/37 20/29/39 24/34/40 23/33/38
s off
f 61/35/41 62/36/42 63/37/43 64/38/44
s 4
f 22/31/45 23/33/46 27/39/47 26/40/48
s off
f 57/41/49 58/42/50 59/43/51 60/44/52
s 4
f 25/45/53 26/40/48 30/46/54 29/47/55
f 26/40/48 27/39/47 31/48/56 30/46/54
f 27/39/47 28/49/57 32/50/58 31/48/56
s off
f 69/51/59 70/52/60 71/53/61 72/54/62
s 4
f 30/46/54 31/48/56 3/55/63 2/56/64
s off
f 65/57/65 66/58/66 67/59/67 68/60/68
s 5
f 28/61/69 24/62/70 20/63/71 16/64/72
f 32/65/73 28/61/69 16/64/72 12/66/74
f 4/7/75 32/65/73 12/66/74 8/8/76
s 6
f 21/67/77 25/68/78 13/69/79 17/70/80
f 25/68/78 29/71/81 9/72/82 13/69/79
f 29/71/81 1/1/83 5/4/84 9/72/82
s off
f 9/73/85 10/14/86 34/17/87 33/16/88
f 53/74/89 54/75/90 55/76/91 56/77/92
f 14/21/93 13/78/94 36/19/95 35/18/96
s 6
f 13/78/79 9/73/82 33/16/97 36/19/98
s 3
f 21/32/36 22/31/35 38/79/99 37/80/100
s off
f 22/31/101 26/40/102 39/81/103 38/79/104
f 26/40/105 25/45/106 40/82/107 39/81/108
s 6
f 25/45/78 21/32/77 37/80/109 40/82/110
s 3
f 23/33/38 24/34/40 42/83/111 41/84/112
s 5
f 24/34/70 28/49/69 43/85/113 42/83/114
s off
f 28/49/115 27/39/116 44/86/117 43/85/118
f 27/39/119 23/33/120 41/84/121 44/86/122
f 29/47/123 30/46/124 46/87/125 45/88/126
f 30/46/127 2/56/128 47/89/129 46/87/130
s 1
f 2/56/2 1/90/1 48/91/131 47/89/132
s 6
f 1/90/83 29/47/81 45/88/133 48/91/134
s off
f 31/48/135 32/50/136 50/92/137 49/93/138
s 5
f 32/50/73 4/94/75 51/95/139 50/92/140
s 1
f 4/94/7 3/55/5 52/96/141 51/95/142
s off
f 3/55/143 31/48/144 49/93/145 52/96/146
f 10/14/147 14/21/148 54/75/149 53/74/150
f 14/21/151 35/18/152 55/76/153 54/75/154
f 35/18/155 34/17/156 56/77/157 55/76/158
f 34/17/159 10/14/160 53/74/161 56/77/162
f 41/84/163 42/83/164 58/42/165 57/41/166
f 42/83/167 43/85/168 59/43/169 58/42/170
f 43/85/171 44/86/172 60/44/173 59/43/174
f 44/86/175 41/84/176 57/41/177 60/44/178
f 37/80/179 38/79/180 62/36/181 61/35/182
f 38/79/183 39/81/184 63/37/185 62/36/186
f 39/81/187 40/82/188 64/38/189 63/37/190
f 40/82/191 37/80/192 61/35/193 64/38/194
f 49/93/195 50/92/196 66/58/197 65/57/198
f 50/92/199 51/95/200 67/59/201 66/58/202
f 51/95/203 52/96/204 68/60/205 67/59/206
f 52/96/207 49/93/208 65/57/209 68/60/210
f 45/88/211 46/87/212 70/52/213 69/51/214
f 46/87/215 47/89/216 71/53/217 70/52/218
f 47/89/219 48/91/220 72/54/221 71/53/222
f 48/91/223 45/88/224 69/51/225 72/54/226
s 1
f 5/4/4 6/3/3 74/10/227 73/9/228
s off
f 6/3/229 10/14/230 75/11/231 74/10/232
f 10/14/233 9/73/234 76/12/235 75/11/236
s 6
f 9/73/82 5/4/84 73/9/237 76/12/238
s off
f 13/78/239 14/21/240 78/24/241 77/23/242
f 14/21/243 18/28/244 79/25/245 78/24/246
s 3
f 18/28/34 17/30/33 80/26/247 79/25/248
s 6
f 17/30/80 13/78/79 77/23/249 80/26/250
g default
v -2.325622 0.640813 -1.493495
v -2.038121 0.640813 -1.357928
v -2.325622 0.654356 -1.493495
v -2.038121 0.654356 -1.357928
v -2.317689 0.654356 -1.510317
v -2.030189 0.654356 -1.374751
v -2.317689 0.640813 -1.510317
v -2.030189 0.640813 -1.374751
v -2.462406 0.643315 -1.200786
v -2.165411 0.643543 -1.060742
v -2.462406 0.656748 -1.200786
v -2.165411 0.656976 -1.060743
v -2.453970 0.656292 -1.218731
v -2.156976 0.656520 -1.078688
v -2.453971 0.643771 -1.218732
v -2.156976 0.643999 -1.078688
vt 0.375000 0.000000
vt 0.625000 0.000000
vt 0.625000 0.250000
vt 0.375000 0.250000
vt 0.625000 0.500000
vt 0.375000 0.500000
vt 0.625000 0.750000
vt 0.375000 0.750000
vt 0.625000 1.000000
vt 0.375000 1.000000
vt 0.875000 0.000000
vt 0.875000 0.250000
vt 0.125000 0.000000
vt 0.125000 0.250000
vt 0.375000 0.000000
vt 0.625000 0.000000
vt 0.625000 0.250000
vt 0.375000 0.250000
vt 0.625000 0.500000
vt 0.375000 0.500000
vt 0.625000 0.750000
vt 0.375000 0.750000
vt 0.625000 1.000000
vt 0.375000 1.000000
vt 0.875000 0.000000
vt 0.875000 0.250000
vt 0.125000 0.000000
vt 0.125000 0.250000
vn -0.426497 0.000000 0.904489
vn -0.426497 0.000000 0.904489
vn -0.426497 0.000000 0.904489
vn -0.426497 0.000000 0.904489
vn 0.000000 1.000000 -0.000000
vn 0.000000 1.000000 -0.000000
vn 0.000000 1.000000 -0.000000
vn 0.000000 1.000000 -0.000000
vn 0.426497 0.000000 -0.904489
vn 0.426497 0.000000 -0.904489
vn 0.426497 0.000000 -0.904489
vn 0.426497 0.000000 -0.904489
vn 0.000000 -1.000000 0.000000
vn 0.000000 -1.000000 0.000000
vn 0.000000 -1.000000 0.000000
vn 0.000000 -1.000000 0.000000
vn 0.904494 0.000000 0.426487
vn 0.904494 0.000000 0.426487
vn 0.904494 0.000000 0.426487
vn 0.904494 0.000000 0.426487
vn -0.904485 0.000000 -0.426505
vn -0.904485 0.000000 -0.426505
vn -0.904485 0.000000 -0.426505
vn -0.904485 0.000000 -0.426505
vn -0.426497 -0.000001 0.904489
vn -0.426497 -0.000001 0.904489
vn -0.426497 -0.000001 0.904489
vn -0.426497 -0.000001 0.904489
vn 0.009181 0.999735 -0.021098
vn 0.009181 0.999735 -0.021098
vn 0.009181 0.999735 -0.021098
vn 0.009181 0.999735 -0.021098
vn 0.426496 -0.000003 -0.904490
vn 0.426496 -0.000003 -0.904490
vn 0.426496 -0.000003 -0.904490
vn 0.426496 -0.000003 -0.904490
vn 0.010438 -0.999735 -0.020510
vn 0.010438 -0.999735 -0.020510
vn 0.010438 -0.999735 -0.020510
vn 0.010438 -0.999735 -0.020510
vn 0.905015 -0.000010 0.425380
vn 0.905015 -0.000010 0.425380
vn 0.905015 -0.000010 0.425380
vn 0.905015 -0.000010 0.425380
vn -0.905008 0.000014 -0.425394
vn -0.905008 0.000014 -0.425394
vn -0.905008 0.000014 -0.425394
vn -0.905008 0.000014 -0.425394
s off
g polySurface63
usemtl lambert20SG
f 81/97/251 82/98/252 84/99/253 83/100/254
f 83/100/255 84/99/256 86/101/257 85/102/258
f 85/102/259 86/101/260 88/103/261 87/104/262
f 87/104/263 88/103/264 82/105/265 81/106/266
f 82/98/267 88/107/268 86/108/269 84/99/270
f 87/109/271 81/97/272 83/100/273 85/110/274
f 89/111/275 90/112/276 92/113/277 91/114/278
f 91/114/279 92/113/280 94/115/281 93/116/282
f 93/116/283 94/115/284 96/117/285 95/118/286
f 95/118/287 96/117/288 90/119/289 89/120/290
f 90/112/291 96/121/292 94/122/293 92/113/294
f 95/123/295 89/111/296 91/114/297 93/124/298
g default
v -2.482627 0.876669 -1.198660
v -2.371011 0.876669 -1.146030
v -2.259395 0.876669 -1.093399
v -2.147779 0.876669 -1.040768
v -2.482627 0.928031 -1.198660
v -2.371011 0.928031 -1.146030
v -2.259395 0.928031 -1.093399
v -2.147779 0.928031 -1.040768
v -2.423821 0.929817 -1.282033
v -2.322021 0.927577 -1.249925
v -2.210404 0.927577 -1.197295
v -2.097772 0.928031 -1.146819
v -2.371782 0.929817 -1.392395
v -2.269981 0.927577 -1.360288
v -2.158365 0.927577 -1.307657
v -2.047765 0.928031 -1.252871
v -2.332606 0.928031 -1.516814
v -2.220990 0.928031 -1.464184
v -2.109374 0.928031 -1.411553
v -1.997758 0.928031 -1.358922
v -2.332606 0.876669 -1.516814
v -2.220990 0.876669 -1.464184
v -2.109374 0.876669 -1.411553
v -1.997758 0.876669 -1.358922
v -2.371782 0.879363 -1.392395
v -2.269981 0.877123 -1.360288
v -2.158365 0.877123 -1.307657
v -2.047765 0.876669 -1.252871
v -2.423821 0.879363 -1.282033
v -2.322021 0.877123 -1.249925
v -2.210404 0.877123 -1.197295
v -2.097772 0.876669 -1.146819
vt 0.375000 0.000000
vt 0.458333 0.000000
vt 0.458333 0.250000
vt 0.375000 0.250000
vt 0.541667 0.000000
vt 0.541667 0.250000
vt 0.625000 0.000000
vt 0.625000 0.250000
vt 0.458333 0.333333
vt 0.375000 0.333333
vt 0.541667 0.333333
vt 0.625000 0.333333
vt 0.458333 0.416667
vt 0.375000 0.416667
vt 0.541667 0.416667
vt 0.625000 0.416667
vt 0.458333 0.500000
vt 0.375000 0.500000
vt 0.541667 0.500000
vt 0.625000 0.500000
vt 0.458333 0.750000
vt 0.375000 0.750000
vt 0.541667 0.750000
vt 0.625000 0.750000
vt 0.458333 0.833333
vt 0.375000 0.833333
vt 0.541667 0.833333
vt 0.625000 0.833333
vt 0.458333 0.916667
vt 0.375000 0.916667
vt 0.541667 0.916667
vt 0.625000 0.916667
vt 0.458333 1.000000
vt 0.375000 1.000000
vt 0.541667 1.000000
vt 0.625000 1.000000
vt 0.791667 0.000000
vt 0.875000 0.000000
vt 0.875000 0.250000
vt 0.791667 0.250000
vt 0.708333 0.000000
vt 0.708333 0.250000
vt 0.125000 0.000000
vt 0.208333 0.000000
vt 0.208333 0.250000
vt 0.125000 0.250000
vt 0.291667 0.000000
vt 0.291667 0.250000
vn -0.426497 0.000000 0.904489
vn -0.426497 0.000000 0.904489
vn -0.426497 0.000000 0.904489
vn -0.426497 0.000000 0.904489
vn -0.426497 0.000000 0.904489
vn -0.426497 0.000000 0.904489
vn -0.426498 0.000000 0.904489
vn -0.426498 0.000000 0.904489
vn 0.006245 0.999923 0.010708
vn 0.003802 0.999988 0.003053
vn 0.006655 0.999971 0.003600
vn 0.011996 0.999878 0.009961
vn 0.000413 0.999995 -0.003066
vn -0.000633 0.999998 -0.001899
vn -0.000847 0.999996 -0.002562
vn -0.002122 0.999996 -0.002052
vn 0.006602 0.999975 0.002375
vn 0.015128 0.999879 0.003737
vn -0.001867 0.999998 0.000720
vn -0.002933 0.999996 -0.000331
vn 0.004684 0.999989 0.001027
vn 0.011110 0.999937 -0.001545
vn -0.002103 0.999995 0.002270
vn -0.002515 0.999996 0.000977
vn 0.426498 0.000000 -0.904489
vn 0.426497 0.000000 -0.904489
vn 0.426497 0.000000 -0.904489
vn 0.426498 0.000000 -0.904489
vn 0.426497 0.000000 -0.904489
vn 0.426497 0.000000 -0.904489
vn 0.426497 0.000000 -0.904489
vn 0.426497 0.000000 -0.904489
vn -0.013848 -0.999869 0.008441
vn -0.007740 -0.999952 0.005998
vn -0.008194 -0.999966 0.001296
vn -0.016499 -0.999864 -0.000285
vn -0.002103 -0.999995 0.002269
vn -0.001867 -0.999998 0.000719
vn -0.002515 -0.999996 0.000976
vn -0.002933 -0.999996 -0.000332
vn -0.005132 -0.999962 -0.007087
vn -0.010259 -0.999845 -0.014338
vn -0.000633 -0.999998 -0.001899
vn -0.002122 -0.999996 -0.002052
vn -0.000540 -0.999944 -0.010549
vn -0.003111 -0.999822 -0.018600
vn 0.000413 -0.999995 -0.003066
vn -0.000847 -0.999996 -0.002562
vn 0.904489 0.000000 0.426498
vn 0.904489 0.000000 0.426498
vn 0.904489 0.000000 0.426498
vn 0.904489 0.000000 0.426498
vn 0.904489 0.000000 0.426498
vn 0.904489 0.000000 0.426498
vn 0.904488 0.000000 0.426498
vn 0.904488 0.000000 0.426498
vn -0.953835 0.000000 -0.300330
vn -0.932394 0.000000 -0.361443
vn -0.932127 0.000000 -0.362132
vn -0.953835 0.000000 -0.300330
vn -0.867423 0.000000 -0.497572
vn -0.868022 0.000000 -0.496526
vn -0.817178 0.000000 -0.576386
vn -0.817178 0.000000 -0.576386
s 1
g polySurface24 polySurface56
usemtl lambert18SG
f 97/125/299 98/126/300 102/127/301 101/128/302
f 98/126/300 99/129/303 103/130/304 102/127/301
f 99/129/303 100/131/305 104/132/306 103/130/304
s 2
f 101/128/307 102/127/308 106/133/309 105/134/310
f 102/127/308 103/130/311 107/135/312 106/133/309
f 103/130/311 104/132/313 108/136/314 107/135/312
f 105/134/310 106/133/309 110/137/315 109/138/316
f 106/133/309 107/135/312 111/139/317 110/137/315
f 107/135/312 108/136/314 112/140/318 111/139/317
f 109/138/316 110/137/315 114/141/319 113/142/320
f 110/137/315 111/139/317 115/143/321 114/141/319
f 111/139/317 112/140/318 116/144/322 115/143/321
s 3
f 113/142/323 114/141/324 118/145/325 117/146/326
f 114/141/324 115/143/327 119/147/328 118/145/325
f 115/143/327 116/144/329 120/148/330 119/147/328
s 4
f 117/146/331 118/145/332 122/149/333 121/150/334
f 118/145/332 119/147/335 123/151/336 122/149/333
f 119/147/335 120/148/337 124/152/338 123/151/336
f 121/150/334 122/149/333 126/153/339 125/154/340
f 122/149/333 123/151/336 127/155/341 126/153/339
f 123/151/336 124/152/338 128/156/342 127/155/341
f 125/154/340 126/153/339 98/157/343 97/158/344
f 126/153/339 127/155/341 99/159/345 98/157/343
f 127/155/341 128/156/342 100/160/346 99/159/345
s 5
f 124/161/347 120/162/348 116/163/349 112/164/350
f 128/165/351 124/161/347 112/164/350 108/166/352
f 100/131/353 128/165/351 108/166/352 104/132/354
s 6
f 117/167/355 121/168/356 109/169/357 113/170/358
f 121/168/356 125/171/359 105/172/360 109/169/357
f 125/171/359 97/125/361 101/128/362 105/172/360
